Coordinates
version=1
nRows=5
nColumns=46
inDegrees=yes

Units are S.I. units (second, meters, Newtons, ...)
Angles are in degrees.

endheader
time	pelvis_tilt	pelvis_list	pelvis_rotation	pelvis_tx	pelvis_ty	pelvis_tz	bb_angle	bb_tx	bb_ty	bb_tz	hip_flexion_r	hip_adduction_r	hip_rotation_r	knee_angle_r	knee_angle_r_beta	ankle_angle_r	subtalar_angle_r	mtp_angle_r	crank_angle_r	hip_flexion_l	hip_adduction_l	hip_rotation_l	knee_angle_l	knee_angle_l_beta	ankle_angle_l	subtalar_angle_l	mtp_angle_l	crank_angle_l	lumbar_extension	lumbar_bending	lumbar_rotation	arm_flex_r	arm_add_r	arm_rot_r	elbow_flex_r	pro_sup_r	wrist_flex_r	wrist_dev_r	arm_flex_l	arm_add_l	arm_rot_l	elbow_flex_l	pro_sup_l	wrist_flex_l	wrist_dev_l
      5.00000000	    -32.93470453	      2.25652548	     -1.22014410	      0.29883016	      1.03809227	     -0.22021208	      0.00000000	      0.50000000	      0.00000000	      0.25000000	     65.86379244	     -5.04695141	      2.53002643	     57.09297084	      0.99646032	     12.53671025	     -6.11265751	      0.00000000	      0.00000000	     58.55735858	     -1.24770351	      5.56371453	     78.25570364	      1.36581969	    -32.66243242	     -6.54771789	      0.00000000	      0.00000000	    -39.31424987	     -3.08102534	      4.90226739	     46.29924895	    -23.60611861	     30.88309538	     74.70083604	     51.84513390	      0.00000000	      0.00000000	     57.43015583	    -16.45739641	     43.32702784	     61.26079106	     50.30080465	      0.00000000	      0.00000000
      5.00500000	    -32.60202238	      1.99358037	     -0.17440751	      0.29960037	      1.03684827	     -0.22013337	      0.00000000	      0.50000000	      0.00000000	      0.25000000	     63.60915323	     -5.54170330	      2.03913880	     54.53221512	      0.95176670	     11.80161192	     -6.50815144	      0.00000000	      0.00000000	     59.64163938	     -0.69912937	      6.21075827	     80.80492667	      1.41031202	    -32.14865648	     -7.05688271	      0.00000000	      0.00000000	    -39.31362238	     -2.32202368	      4.20353498	     45.81987751	    -22.81718651	     30.47172863	     74.55858748	     51.77587537	      0.00000000	      0.00000000	     57.59836257	    -16.83703270	     43.81997064	     61.01952598	     50.31915821	      0.00000000	      0.00000000
      5.01000000	    -32.49470705	      1.79121043	      0.85021803	      0.29984129	      1.03498612	     -0.22001070	      0.00000000	      0.50000000	      0.00000000	      0.25000000	     61.69160032	     -5.92957924	      1.75472793	     52.06271864	      0.90866586	     10.65089330	     -7.58390106	      0.00000000	      0.00000000	     61.06851847	     -0.14593562	      6.83154185	     83.40249892	      1.45564821	    -31.47462668	     -7.22256240	      0.00000000	      0.00000000	    -38.98577685	     -1.69790469	      3.33241383	     45.22015637	    -21.33613174	     29.11449056	     73.77686146	     51.50427132	      0.00000000	      0.00000000	     57.99207808	    -17.61066326	     45.01927711	     60.69261373	     50.41052014	      0.00000000	      0.00000000
      5.01500000	    -32.27044999	      1.66230676	      1.85898673	      0.30016037	      1.03317231	     -0.22013422	      0.00000000	      0.50000000	      0.00000000	      0.25000000	     59.66133123	     -6.39346255	      1.36563246	     49.64612516	      0.86648834	      9.67550517	     -8.13479855	      0.00000000	      0.00000000	     62.39759995	      0.48970365	      7.36744471	     86.03833538	      1.50165224	    -30.54365208	     -7.38408555	      0.00000000	      0.00000000	    -38.72455028	     -1.11122814	      2.47429516	     44.57122878	    -19.48278160	     27.07927585	     72.64351678	     51.12142570	      0.00000000	      0.00000000	     58.73192637	    -18.51163406	     47.45555026	     60.28271603	     50.64305907	      0.00000000	      0.00000000
      5.02000000	    -32.00406750	      1.52529127	      2.75283630	      0.30027886	      1.03138659	     -0.22000215	      0.00000000	      0.50000000	      0.00000000	      0.25000000	     57.60404401	     -6.70582543	      1.11663539	     47.25625825	      0.82477730	      8.55072996	     -8.43825539	      0.00000000	      0.00000000	     63.73076912	      0.98755217	      7.85337796	     88.66250696	      1.54745267	    -29.49942432	     -7.53939033	      0.00000000	      0.00000000	    -38.60694460	     -0.59629892	      1.82008237	     44.13690577	    -19.05582768	     26.89520516	     72.61605476	     51.09444542	      0.00000000	      0.00000000	     58.92662776	    -18.71464855	     47.84322954	     60.05594759	     50.64416307	      0.00000000	      0.00000000
